<svg xmlns="http://www.w3.org/2000/svg" width="83.072" height="38.488" viewBox="0 0 83.072 38.488"><defs><style>.a,.b,.c,.d,.h{fill:none;}.b,.c,.d{stroke:#e3b6b9;stroke-width:4.6px;}.b,.c{stroke-linecap:round;}.c{stroke-linejoin:round;}.e{fill:#ff3e4b;}.f,.g{stroke:none;}.g{fill:#e3b6b9;}</style></defs><g transform="translate(81.22 32.75)"><g transform="translate(-384 -8)"><g class="a" transform="translate(320.611 -27)"><path class="f" d="M4.5,9A3.375,3.375,0,1,0,1.125,5.625,3.376,3.376,0,0,0,4.5,9Z"/><path class="g" d="M 4.5 9 C 2.636719942092896 9 1.125 7.488279819488525 1.125 5.625 C 1.125 3.761719942092896 2.636719942092896 2.25 4.5 2.25 C 6.363279819488525 2.25 7.875 3.761719942092896 7.875 5.625 C 7.875 7.488279819488525 6.363279819488525 9 4.5 9 Z"/></g><line class="b" x1="5" y1="6" transform="translate(313.5 -17.5)"/><path class="c" d="M323.911-13.5l6.672,4.92h6.273" transform="translate(2)"/><g class="d" transform="translate(321 -16)"><rect class="f" width="8" height="16" rx="3"/><rect class="h" x="2.3" y="2.3" width="3.4" height="11.4" rx="0.7"/></g><path class="c" d="M325.111-9.133l6.456,11.355v7.7"/><path class="c" d="M338.187-12.178l-2.86,14.023-1.314,9.294" transform="translate(-14)"/></g><path class="e" d="M7.7-6.292c1.54,0,3.08-.044,4.62-.044,1.936,0,3.872.044,5.808.044C18.876-4.224,19.492-2.2,20.064,0A49.211,49.211,0,0,1,25.74-.4,31.481,31.481,0,0,1,31.5,0C29.04-5.324,27.94-8.14,25.432-14.388,23.276-19.8,20.46-27.5,19.14-31.68a14.454,14.454,0,0,1-3.124.4,14.771,14.771,0,0,1-3.08-.4c-.528,1.452-2.728,7.348-4.048,10.6C6.556-15.356,4.136-9.328,2.508-5.852L-.22,0A13.214,13.214,0,0,1,2.728-.4,13.6,13.6,0,0,1,5.72,0C6.336-2.112,6.908-4.224,7.7-6.292Zm9.02-3.96c-1.276.044-2.6.044-3.872.044s-2.552,0-3.872-.044L12.936-20.5ZM51.964-15.84a35.759,35.759,0,0,1,1.364-5.28,18.809,18.809,0,0,0-8.008-2.068c-6.908,0-12.716,4-12.716,11.792C32.6-5.06,36.828.176,44.572.176c2.6,0,6.116-.836,7.172-1.584a29.792,29.792,0,0,1,1.584-4.224l-1.364-.88A5.934,5.934,0,0,1,47.608-4.18c-4.4,0-4.884-5.368-4.884-7.964,0-2.728.44-7.568,4.136-7.568,2.288,0,3.124,1.892,3.476,3.872Zm14.872-3.432c1.32,0,2.64.044,3.96.176-.044-.484-.176-1.1-.176-1.672a9.811,9.811,0,0,1,.176-1.716c-1.188.088-2.508.176-3.96.176a82.661,82.661,0,0,1,.572-9.812l-.792-.528a45.748,45.748,0,0,1-8.844,4.62v5.72c-.968,0-2.552-.088-3.476-.176a7.04,7.04,0,0,1,.22,1.716A14.17,14.17,0,0,1,54.3-19.1c1.144-.088,2.288-.176,3.476-.176v5.852c0,2.156-.176,4.444-.176,6.556,0,4.62,2.288,7.216,7.3,7.216a20.854,20.854,0,0,0,6.732-1.364,7.349,7.349,0,0,1-.176-1.5,5.275,5.275,0,0,1,.176-1.364,5.362,5.362,0,0,1-2.156.528,2.421,2.421,0,0,1-2.64-2.684Zm12.452,8.4,2.244-9.284a43.285,43.285,0,0,0,1.32-7.128c0-3.036-1.76-4.664-4.62-4.664-2.772,0-4.62,1.408-4.62,4.928a26.136,26.136,0,0,0,.924,5.5L77-10.868Zm3.52,6.688a4.63,4.63,0,0,0-4.576-4.576A4.63,4.63,0,0,0,73.656-4.18,4.6,4.6,0,0,0,78.232.4,4.6,4.6,0,0,0,82.808-4.18Z" transform="translate(-81 5)"/></g></svg>