<svg xmlns="http://www.w3.org/2000/svg" xmlns:xlink="http://www.w3.org/1999/xlink" width="82" height="82" viewBox="0 0 82 82"><defs><style>.a{fill:#e9ebef;stroke:#fff;}.b,.d{fill:none;}.b{stroke:#fc8000;stroke-linecap:round;stroke-linejoin:round;stroke-width:3px;}.c{stroke:none;}.e{filter:url(#a);}</style><filter id="a" x="0" y="0" width="82" height="82" filterUnits="userSpaceOnUse"><feOffset dy="3" input="SourceAlpha"/><feGaussianBlur stdDeviation="4.5" result="b"/><feFlood flood-color="#c1c1c1" flood-opacity="0.38"/><feComposite operator="in" in2="b"/><feComposite in="SourceGraphic"/></filter></defs><g transform="translate(-45.5 -1267.5)"><g class="e" transform="matrix(1, 0, 0, 1, 45.5, 1267.5)"><g class="a" transform="translate(13.5 10.5)"><circle class="c" cx="27.5" cy="27.5" r="27.5"/><circle class="d" cx="27.5" cy="27.5" r="27"/></g></g><g transform="translate(69.535 1287)"><path class="b" d="M21,3H9A3,3,0,0,0,6,6V30a3,3,0,0,0,3,3H27a3,3,0,0,0,3-3V12Z"/><path class="b" d="M21,3v9h9"/><path class="b" d="M24,19.5H12"/><path class="b" d="M24,25.5H12"/><path class="b" d="M15,13.5H12"/></g></g></svg>