<svg xmlns="http://www.w3.org/2000/svg" width="108.993" height="44.199" viewBox="0 0 108.993 44.199"><defs><style>.a{fill:#f9942b;}.b{fill:#7d8487;}.c{fill:#f5c592;}.d{fill:#c8cccc;}.e{fill:#d1a87d;}</style></defs><g transform="translate(-262 -21)"><path class="a" d="M25.62-.94A1.151,1.151,0,0,0,26.84,0H28.8a1.141,1.141,0,0,0,1.22-.96l.92-3.8a9.445,9.445,0,0,0,.2-1.1h.04a9.445,9.445,0,0,0,.2,1.1l.92,3.8A1.141,1.141,0,0,0,33.52,0h1.92a1.151,1.151,0,0,0,1.22-.94l2.28-8.12A.883.883,0,0,0,38-10.3H36.68a1.1,1.1,0,0,0-1.2.98L34.4-4.22a7.121,7.121,0,0,0-.14,1.08h-.04a5.96,5.96,0,0,0-.16-1.08l-1.2-5.12a1.109,1.109,0,0,0-1.2-.96h-1a1.109,1.109,0,0,0-1.2.96l-1.2,5.12a7.344,7.344,0,0,0-.18,1.08h-.04a5.809,5.809,0,0,0-.12-1.08l-1.08-5.1a1.1,1.1,0,0,0-1.2-.98H24.28a.883.883,0,0,0-.94,1.24ZM39.64-5.16A5.341,5.341,0,0,0,45.3.24a7.187,7.187,0,0,0,3.54-.92,1.011,1.011,0,0,0,.38-1.5l-.28-.52c-.34-.64-.82-.72-1.48-.42a4.281,4.281,0,0,1-1.88.48,2.3,2.3,0,0,1-2.4-1.84H48.6a1.183,1.183,0,0,0,1.16-1.14A4.565,4.565,0,0,0,45-10.54,5.127,5.127,0,0,0,39.64-5.16Zm3.62-1.3A1.692,1.692,0,0,1,44.92-8a1.431,1.431,0,0,1,1.42,1.54Z" transform="translate(321.233 54.799)"/><path class="b" d="M1.38-1.1A.983.983,0,0,0,2.48,0H9.62a.983.983,0,0,0,1.1-1.1v-.8A.983.983,0,0,0,9.62-3H4.88V-13.2a.983.983,0,0,0-1.1-1.1H2.48a.983.983,0,0,0-1.1,1.1Zm9.6-4.02c0,3.22,2.6,5.36,5.84,5.36s5.84-2.14,5.84-5.36c0-3.24-2.6-5.42-5.86-5.42C13.58-10.54,10.98-8.36,10.98-5.12Zm3.5,0a2.371,2.371,0,0,1,2.34-2.54,2.371,2.371,0,0,1,2.34,2.54,2.33,2.33,0,0,1-2.34,2.48A2.33,2.33,0,0,1,14.48-5.12Z" transform="translate(321.233 54.799)"/><g transform="translate(262 21)"><path class="c" d="M17.077,0A17.077,17.077,0,0,1,34.154,17.077c0,5.81.023,11.981,4.122,13.972-2.519,1.756-17.578,3.1-21.2,3.1A17.077,17.077,0,0,1,17.077,0Z" transform="translate(0 10.045)"/><path class="d" d="M17.077,0A17.077,17.077,0,0,1,34.154,17.077c0,5.4-3.692,20.294-7.855,23.614-2.675,2.14-5.2-6.537-9.222-6.537A17.077,17.077,0,0,1,17.077,0Z" transform="translate(13.059)"/><path class="e" d="M17.077,24.109A17.086,17.086,0,0,1,1.423.2,17.092,17.092,0,0,1,21.1,17.077c0,5.649.022,11.64,3.792,13.8C22.686,29.992,20.393,24.109,17.077,24.109Z" transform="translate(13.059 10.045)"/></g></g></svg>