<svg xmlns="http://www.w3.org/2000/svg" xmlns:xlink="http://www.w3.org/1999/xlink" width="47.001" height="42" viewBox="0 0 47.001 42"><defs><style>.a{fill:#fff;}.b,.c{stroke:none;}.c{fill:#c1c1c1;}.d{filter:url(#a);}</style><filter id="a" x="0" y="0" width="47.001" height="42" filterUnits="userSpaceOnUse"><feOffset dy="3" input="SourceAlpha"/><feGaussianBlur stdDeviation="3" result="b"/><feFlood flood-opacity="0.122"/><feComposite operator="in" in2="b"/><feComposite in="SourceGraphic"/></filter></defs><g class="d" transform="matrix(1, 0, 0, 1, 0, 0)"><g class="a" transform="translate(599 1344)"><path class="b" d="M -566.0001220703125 -1314.375 L -585 -1314.375 C -587.5504760742188 -1314.375 -589.6254272460938 -1316.449951171875 -589.6254272460938 -1319.00048828125 L -589.6254272460938 -1330.000244140625 C -589.6254272460938 -1332.550170898438 -587.5504760742188 -1334.624755859375 -585 -1334.624755859375 L -578.0001831054688 -1334.624755859375 L -577.8448486328125 -1334.624755859375 L -577.7349853515625 -1334.734619140625 L -575.0001220703125 -1337.469970703125 L -572.2647094726563 -1334.734619140625 L -572.1548461914063 -1334.624755859375 L -571.99951171875 -1334.624755859375 L -566.0001220703125 -1334.624755859375 C -563.4496459960938 -1334.624755859375 -561.3746948242188 -1332.550170898438 -561.3746948242188 -1330.000244140625 L -561.3746948242188 -1319.00048828125 C -561.3746948242188 -1316.449951171875 -563.4496459960938 -1314.375 -566.0001220703125 -1314.375 Z"/><path class="c" d="M -566.0001220703125 -1314.75 C -563.6564331054688 -1314.75 -561.7496948242188 -1316.65673828125 -561.7496948242188 -1319.00048828125 L -561.7496948242188 -1330.000244140625 C -561.7496948242188 -1332.343383789063 -563.6564331054688 -1334.249755859375 -566.0001220703125 -1334.249755859375 L -571.99951171875 -1334.249755859375 L -572.3101806640625 -1334.249755859375 L -572.5298461914063 -1334.469482421875 L -575.0000610351563 -1336.939697265625 L -577.4697875976563 -1334.469482421875 L -577.689453125 -1334.249755859375 L -578.0001831054688 -1334.249755859375 L -585 -1334.249755859375 C -587.3436889648438 -1334.249755859375 -589.2504272460938 -1332.343383789063 -589.2504272460938 -1330.000244140625 L -589.2504272460938 -1319.00048828125 C -589.2504272460938 -1316.65673828125 -587.3436889648438 -1314.75 -585 -1314.75 L -566.0001220703125 -1314.75 M -566.0001220703125 -1314 L -585 -1314 C -587.76123046875 -1314 -590.0004272460938 -1316.23828125 -590.0004272460938 -1319.00048828125 L -590.0004272460938 -1330.000244140625 C -590.0004272460938 -1332.761474609375 -587.76123046875 -1334.999755859375 -585 -1334.999755859375 L -578.0001831054688 -1334.999755859375 L -575.0001220703125 -1338.000366210938 L -571.99951171875 -1334.999755859375 L -566.0001220703125 -1334.999755859375 C -563.2388916015625 -1334.999755859375 -560.9996948242188 -1332.761474609375 -560.9996948242188 -1330.000244140625 L -560.9996948242188 -1319.00048828125 C -560.9996948242188 -1316.23828125 -563.2388916015625 -1314 -566.0001220703125 -1314 Z"/></g></g></svg>