<svg xmlns="http://www.w3.org/2000/svg" xmlns:xlink="http://www.w3.org/1999/xlink" width="75" height="78" viewBox="0 0 75 78"><defs><style>.a{fill:#e9ebef;}.b{fill:none;stroke:#ff4b6d;stroke-linecap:round;stroke-linejoin:round;stroke-width:3px;}.c,.d{stroke:none;}.d{fill:#fff;}.e{filter:url(#a);}</style><filter id="a" x="0" y="0" width="75" height="78" filterUnits="userSpaceOnUse"><feOffset dy="3" input="SourceAlpha"/><feGaussianBlur stdDeviation="4.5" result="b"/><feFlood flood-color="#c1c1c1" flood-opacity="0.38"/><feComposite operator="in" in2="b"/><feComposite in="SourceGraphic"/></filter></defs><g transform="translate(-49.5 -1268.5)"><g class="e" transform="matrix(1, 0, 0, 1, 49.5, 1268.5)"><g class="a" transform="translate(13.5 10.5)"><path class="c" d="M 40 50.5 L 8 50.5 C 3.864490032196045 50.5 0.5 47.1355094909668 0.5 43 L 0.5 8 C 0.5 3.864490032196045 3.864490032196045 0.5 8 0.5 L 40 0.5 C 44.1355094909668 0.5 47.5 3.864490032196045 47.5 8 L 47.5 43 C 47.5 47.1355094909668 44.1355094909668 50.5 40 50.5 Z"/><path class="d" d="M 8 1 C 4.140190124511719 1 1 4.140190124511719 1 8 L 1 43 C 1 46.85980987548828 4.140190124511719 50 8 50 L 40 50 C 43.85980987548828 50 47 46.85980987548828 47 43 L 47 8 C 47 4.140190124511719 43.85980987548828 1 40 1 L 8 1 M 8 0 L 40 0 C 44.41828155517578 0 48 3.581718444824219 48 8 L 48 43 C 48 47.41828155517578 44.41828155517578 51 40 51 L 8 51 C 3.581718444824219 51 0 47.41828155517578 0 43 L 0 8 C 0 3.581718444824219 3.581718444824219 0 8 0 Z"/></g></g><g transform="translate(68.724 1285)"><path class="b" d="M30,31.5v-3a6,6,0,0,0-6-6H12a6,6,0,0,0-6,6v3"/><path class="b" d="M24,10.5a6,6,0,1,1-6-6A6,6,0,0,1,24,10.5Z"/></g></g></svg>